<mxfile host="app.diagrams.net" agent="Mozilla/5.0 (Windows NT 10.0; Win64; x64) AppleWebKit/537.36 (KHTML, like Gecko) Chrome/130.0.0.0 Safari/537.36" version="24.8.2">
  <diagram name="Page-1" id="099fd60b-425b-db50-ffb0-6b813814b670">
    <mxGraphModel dx="3183" dy="2349" grid="1" gridSize="10" guides="1" tooltips="1" connect="1" arrows="1" fold="1" page="1" pageScale="1" pageWidth="850" pageHeight="1100" background="none" math="0" shadow="0">
      <root>
        <mxCell id="0" />
        <mxCell id="1" parent="0" />
        <mxCell id="10ed09ecd0ef054a-2" value="" style="shape=rect;dashed=0;shadow=0;html=1;whiteSpace=wrap;rotation=0;rounded=0;comic=0;labelBackgroundColor=none;strokeWidth=1;fontFamily=Verdana;fontSize=12;align=center;strokeColor=default;" parent="1" vertex="1">
          <mxGeometry x="58" y="360" width="695" height="40" as="geometry" />
        </mxCell>
        <mxCell id="10ed09ecd0ef054a-3" value="&lt;font style=&quot;font-size: 11px;&quot;&gt;LIGO&lt;/font&gt;" style="shape=rect;dashed=0;shadow=0;html=1;whiteSpace=wrap;rotation=270;rounded=0;comic=0;labelBackgroundColor=none;strokeWidth=1;fontFamily=Verdana;fontSize=11;align=center;strokeColor=default;" parent="1" vertex="1">
          <mxGeometry x="97.5" y="340" width="637.5" height="40" as="geometry" />
        </mxCell>
        <mxCell id="10ed09ecd0ef054a-6" value="" style="whiteSpace=wrap;html=1;rounded=0;shadow=0;comic=0;labelBackgroundColor=none;strokeWidth=1;fontFamily=Verdana;fontSize=12;align=center;rotation=0;strokeColor=default;" parent="1" vertex="1">
          <mxGeometry x="-160" y="600" width="361" height="12" as="geometry" />
        </mxCell>
        <mxCell id="10ed09ecd0ef054a-7" value="" style="whiteSpace=wrap;html=1;rounded=0;shadow=0;comic=0;labelBackgroundColor=none;strokeWidth=1;fontFamily=Verdana;fontSize=12;align=center;rotation=90;strokeColor=default;" parent="1" vertex="1">
          <mxGeometry x="27.5" y="772.5" width="356" height="12" as="geometry" />
        </mxCell>
        <mxCell id="10ed09ecd0ef054a-8" value="" style="whiteSpace=wrap;html=1;rounded=0;shadow=0;comic=0;labelBackgroundColor=none;strokeWidth=1;fontFamily=Verdana;fontSize=12;align=center;rotation=0;strokeColor=default;" parent="1" vertex="1">
          <mxGeometry x="-267.5" y="1579" width="361" height="12" as="geometry" />
        </mxCell>
        <mxCell id="M1WmX0pcGUZYGoduAmo--1" value="&lt;font style=&quot;font-size: 11px;&quot;&gt;Static Double Slit Arm A&lt;/font&gt;" style="text;html=1;align=center;verticalAlign=middle;whiteSpace=wrap;rounded=0;strokeColor=none;fontSize=11;" vertex="1" parent="1">
          <mxGeometry x="-20" y="550" width="60" height="30" as="geometry" />
        </mxCell>
        <mxCell id="M1WmX0pcGUZYGoduAmo--2" value="Static Double Slit Arm B" style="text;html=1;align=center;verticalAlign=middle;whiteSpace=wrap;rounded=0;strokeColor=none;fontSize=11;" vertex="1" parent="1">
          <mxGeometry x="239.5" y="770" width="60" height="30" as="geometry" />
        </mxCell>
        <mxCell id="M1WmX0pcGUZYGoduAmo--3" value="" style="endArrow=classic;startArrow=classic;html=1;rounded=0;entryX=0.148;entryY=0.925;entryDx=0;entryDy=0;entryPerimeter=0;exitX=0.886;exitY=-0.167;exitDx=0;exitDy=0;exitPerimeter=0;strokeColor=default;" edge="1" parent="1" source="10ed09ecd0ef054a-6" target="10ed09ecd0ef054a-2">
          <mxGeometry width="50" height="50" relative="1" as="geometry">
            <mxPoint x="330" y="760" as="sourcePoint" />
            <mxPoint x="380" y="710" as="targetPoint" />
            <Array as="points">
              <mxPoint x="160" y="480" />
            </Array>
          </mxGeometry>
        </mxCell>
        <mxCell id="M1WmX0pcGUZYGoduAmo--4" value="&lt;font style=&quot;font-size: 11px;&quot;&gt;500m&lt;/font&gt;" style="text;html=1;align=center;verticalAlign=middle;whiteSpace=wrap;rounded=0;strokeColor=none;fontSize=11;" vertex="1" parent="1">
          <mxGeometry x="162" y="480" width="60" height="30" as="geometry" />
        </mxCell>
        <mxCell id="M1WmX0pcGUZYGoduAmo--6" value="" style="endArrow=classic;startArrow=classic;html=1;rounded=0;strokeColor=default;" edge="1" parent="1">
          <mxGeometry width="50" height="50" relative="1" as="geometry">
            <mxPoint x="220" y="630" as="sourcePoint" />
            <mxPoint x="390" y="630" as="targetPoint" />
          </mxGeometry>
        </mxCell>
        <mxCell id="M1WmX0pcGUZYGoduAmo--7" value="&lt;font style=&quot;font-size: 11px;&quot;&gt;500m&lt;/font&gt;" style="text;html=1;align=center;verticalAlign=middle;whiteSpace=wrap;rounded=0;strokeColor=none;fontSize=11;" vertex="1" parent="1">
          <mxGeometry x="278" y="590" width="60" height="30" as="geometry" />
        </mxCell>
        <mxCell id="M1WmX0pcGUZYGoduAmo--8" value="" style="whiteSpace=wrap;html=1;rounded=0;shadow=0;comic=0;labelBackgroundColor=none;strokeWidth=1;fontFamily=Verdana;fontSize=12;align=center;rotation=0;strokeColor=default;" vertex="1" parent="1">
          <mxGeometry x="-230" y="680" width="361" height="12" as="geometry" />
        </mxCell>
        <mxCell id="M1WmX0pcGUZYGoduAmo--9" value="" style="whiteSpace=wrap;html=1;rounded=0;shadow=0;comic=0;labelBackgroundColor=none;strokeWidth=1;fontFamily=Verdana;fontSize=12;align=center;rotation=-90;strokeColor=default;" vertex="1" parent="1">
          <mxGeometry x="-56.25" y="858.25" width="364.5" height="12" as="geometry" />
        </mxCell>
        <mxCell id="M1WmX0pcGUZYGoduAmo--10" value="" style="endArrow=classic;startArrow=classic;html=1;rounded=0;strokeColor=default;" edge="1" parent="1">
          <mxGeometry width="50" height="50" relative="1" as="geometry">
            <mxPoint x="-160" y="642" as="sourcePoint" />
            <mxPoint x="190" y="642" as="targetPoint" />
          </mxGeometry>
        </mxCell>
        <mxCell id="M1WmX0pcGUZYGoduAmo--11" value="1000m" style="text;html=1;align=center;verticalAlign=middle;whiteSpace=wrap;rounded=0;strokeColor=none;fontSize=11;" vertex="1" parent="1">
          <mxGeometry x="-20" y="612" width="60" height="30" as="geometry" />
        </mxCell>
        <mxCell id="M1WmX0pcGUZYGoduAmo--12" value="" style="endArrow=classic;startArrow=classic;html=1;rounded=0;strokeColor=default;" edge="1" parent="1">
          <mxGeometry width="50" height="50" relative="1" as="geometry">
            <mxPoint x="160" y="620" as="sourcePoint" />
            <mxPoint x="160" y="950" as="targetPoint" />
          </mxGeometry>
        </mxCell>
        <mxCell id="M1WmX0pcGUZYGoduAmo--13" value="1000m" style="text;html=1;align=center;verticalAlign=middle;whiteSpace=wrap;rounded=0;rotation=90;strokeColor=none;fontSize=11;" vertex="1" parent="1">
          <mxGeometry x="146" y="763.5" width="60" height="30" as="geometry" />
        </mxCell>
        <mxCell id="M1WmX0pcGUZYGoduAmo--14" value="Constant Velocity Double Slit Arm A" style="text;html=1;align=center;verticalAlign=middle;whiteSpace=wrap;rounded=0;strokeColor=none;fontSize=11;" vertex="1" parent="1">
          <mxGeometry x="-370" y="666.5" width="130" height="39" as="geometry" />
        </mxCell>
        <mxCell id="M1WmX0pcGUZYGoduAmo--16" value="1000m" style="text;html=1;align=center;verticalAlign=middle;whiteSpace=wrap;rounded=0;strokeColor=none;fontSize=11;" vertex="1" parent="1">
          <mxGeometry x="-90" y="692" width="60" height="30" as="geometry" />
        </mxCell>
        <mxCell id="M1WmX0pcGUZYGoduAmo--17" value="" style="endArrow=classic;startArrow=classic;html=1;rounded=0;strokeColor=default;" edge="1" parent="1">
          <mxGeometry width="50" height="50" relative="1" as="geometry">
            <mxPoint x="-230" y="722" as="sourcePoint" />
            <mxPoint x="120" y="722" as="targetPoint" />
          </mxGeometry>
        </mxCell>
        <mxCell id="M1WmX0pcGUZYGoduAmo--18" value="" style="endArrow=classic;startArrow=classic;html=1;rounded=0;strokeColor=default;" edge="1" parent="1">
          <mxGeometry width="50" height="50" relative="1" as="geometry">
            <mxPoint x="81" y="692" as="sourcePoint" />
            <mxPoint x="81" y="1022" as="targetPoint" />
          </mxGeometry>
        </mxCell>
        <mxCell id="M1WmX0pcGUZYGoduAmo--19" value="1000m" style="text;html=1;align=center;verticalAlign=middle;whiteSpace=wrap;rounded=0;rotation=90;strokeColor=none;fontSize=11;" vertex="1" parent="1">
          <mxGeometry x="71" y="849.25" width="60" height="30" as="geometry" />
        </mxCell>
        <mxCell id="M1WmX0pcGUZYGoduAmo--22" value="&lt;font style=&quot;font-size: 11px;&quot;&gt;Constant Velocity Double Slit Arm B&lt;/font&gt;" style="text;html=1;align=center;verticalAlign=middle;whiteSpace=wrap;rounded=0;rotation=90;strokeColor=none;fontSize=11;" vertex="1" parent="1">
          <mxGeometry x="61" y="1130" width="130" height="39" as="geometry" />
        </mxCell>
        <mxCell id="M1WmX0pcGUZYGoduAmo--23" value="" style="whiteSpace=wrap;html=1;rounded=0;shadow=0;comic=0;labelBackgroundColor=none;strokeWidth=1;fontFamily=Verdana;fontSize=12;align=center;rotation=0;strokeColor=default;" vertex="1" parent="1">
          <mxGeometry x="-317.25" y="753.5" width="361" height="12" as="geometry" />
        </mxCell>
        <mxCell id="M1WmX0pcGUZYGoduAmo--24" value="" style="whiteSpace=wrap;html=1;rounded=0;shadow=0;comic=0;labelBackgroundColor=none;strokeWidth=1;fontFamily=Verdana;fontSize=12;align=center;rotation=-90;strokeColor=default;" vertex="1" parent="1">
          <mxGeometry x="-143.5" y="931.75" width="364.5" height="12" as="geometry" />
        </mxCell>
        <mxCell id="M1WmX0pcGUZYGoduAmo--25" value="Accelerating Double Slit Arm A" style="text;html=1;align=center;verticalAlign=middle;whiteSpace=wrap;rounded=0;strokeColor=none;fontSize=11;" vertex="1" parent="1">
          <mxGeometry x="-460" y="740" width="130" height="39" as="geometry" />
        </mxCell>
        <mxCell id="M1WmX0pcGUZYGoduAmo--26" value="1000m" style="text;html=1;align=center;verticalAlign=middle;whiteSpace=wrap;rounded=0;strokeColor=none;fontSize=11;" vertex="1" parent="1">
          <mxGeometry x="-177.25" y="765.5" width="60" height="30" as="geometry" />
        </mxCell>
        <mxCell id="M1WmX0pcGUZYGoduAmo--27" value="" style="endArrow=classic;startArrow=classic;html=1;rounded=0;strokeColor=default;" edge="1" parent="1">
          <mxGeometry width="50" height="50" relative="1" as="geometry">
            <mxPoint x="-317.25" y="795.5" as="sourcePoint" />
            <mxPoint x="32.75" y="795.5" as="targetPoint" />
          </mxGeometry>
        </mxCell>
        <mxCell id="M1WmX0pcGUZYGoduAmo--28" value="" style="endArrow=classic;startArrow=classic;html=1;rounded=0;strokeColor=default;" edge="1" parent="1">
          <mxGeometry width="50" height="50" relative="1" as="geometry">
            <mxPoint x="-6.25" y="765.5" as="sourcePoint" />
            <mxPoint x="-6.25" y="1095.5" as="targetPoint" />
          </mxGeometry>
        </mxCell>
        <mxCell id="M1WmX0pcGUZYGoduAmo--29" value="1000m" style="text;html=1;align=center;verticalAlign=middle;whiteSpace=wrap;rounded=0;rotation=90;strokeColor=none;fontSize=11;" vertex="1" parent="1">
          <mxGeometry x="-16.25" y="922.75" width="60" height="30" as="geometry" />
        </mxCell>
        <mxCell id="M1WmX0pcGUZYGoduAmo--30" value="Accelerating Double Slit Arm B" style="text;html=1;align=center;verticalAlign=middle;whiteSpace=wrap;rounded=0;rotation=90;strokeColor=none;fontSize=11;" vertex="1" parent="1">
          <mxGeometry x="-26.25" y="1200" width="130" height="39" as="geometry" />
        </mxCell>
        <mxCell id="M1WmX0pcGUZYGoduAmo--31" value="" style="endArrow=classic;startArrow=classic;html=1;rounded=0;exitX=0.239;exitY=1.176;exitDx=0;exitDy=0;exitPerimeter=0;strokeColor=default;" edge="1" parent="1" source="M1WmX0pcGUZYGoduAmo--9">
          <mxGeometry width="50" height="50" relative="1" as="geometry">
            <mxPoint x="140" y="960" as="sourcePoint" />
            <mxPoint x="210" y="960" as="targetPoint" />
          </mxGeometry>
        </mxCell>
        <mxCell id="M1WmX0pcGUZYGoduAmo--32" value="~10-25m" style="text;html=1;align=center;verticalAlign=middle;whiteSpace=wrap;rounded=0;strokeColor=none;fontSize=11;" vertex="1" parent="1">
          <mxGeometry x="141" y="960" width="60" height="30" as="geometry" />
        </mxCell>
        <mxCell id="M1WmX0pcGUZYGoduAmo--33" value="" style="endArrow=classic;startArrow=classic;html=1;rounded=0;exitX=0.201;exitY=1.194;exitDx=0;exitDy=0;exitPerimeter=0;entryX=0;entryY=1;entryDx=0;entryDy=0;strokeColor=default;" edge="1" parent="1" source="M1WmX0pcGUZYGoduAmo--24" target="M1WmX0pcGUZYGoduAmo--9">
          <mxGeometry width="50" height="50" relative="1" as="geometry">
            <mxPoint x="110" y="1080" as="sourcePoint" />
            <mxPoint x="140" y="1050" as="targetPoint" />
            <Array as="points" />
          </mxGeometry>
        </mxCell>
        <mxCell id="M1WmX0pcGUZYGoduAmo--34" value="~10-25m" style="text;html=1;align=center;verticalAlign=middle;whiteSpace=wrap;rounded=0;strokeColor=none;fontSize=11;" vertex="1" parent="1">
          <mxGeometry x="51" y="1050" width="60" height="30" as="geometry" />
        </mxCell>
        <mxCell id="M1WmX0pcGUZYGoduAmo--35" value="" style="endArrow=classic;startArrow=classic;html=1;rounded=0;exitX=0;exitY=0.25;exitDx=0;exitDy=0;entryX=0.193;entryY=-0.134;entryDx=0;entryDy=0;entryPerimeter=0;strokeColor=default;" edge="1" parent="1" source="10ed09ecd0ef054a-6" target="M1WmX0pcGUZYGoduAmo--8">
          <mxGeometry width="50" height="50" relative="1" as="geometry">
            <mxPoint x="-140" y="750" as="sourcePoint" />
            <mxPoint x="-90" y="700" as="targetPoint" />
          </mxGeometry>
        </mxCell>
        <mxCell id="M1WmX0pcGUZYGoduAmo--36" value="" style="endArrow=classic;startArrow=classic;html=1;rounded=0;exitX=0;exitY=0.25;exitDx=0;exitDy=0;strokeColor=default;" edge="1" parent="1">
          <mxGeometry width="50" height="50" relative="1" as="geometry">
            <mxPoint x="-230" y="690.5" as="sourcePoint" />
            <mxPoint x="-230" y="750" as="targetPoint" />
          </mxGeometry>
        </mxCell>
        <mxCell id="M1WmX0pcGUZYGoduAmo--37" value="~10-25m" style="text;html=1;align=center;verticalAlign=middle;whiteSpace=wrap;rounded=0;strokeColor=none;fontSize=11;" vertex="1" parent="1">
          <mxGeometry x="-220" y="620" width="60" height="30" as="geometry" />
        </mxCell>
        <mxCell id="M1WmX0pcGUZYGoduAmo--38" value="~10-25m" style="text;html=1;align=center;verticalAlign=middle;whiteSpace=wrap;rounded=0;strokeColor=none;fontSize=11;" vertex="1" parent="1">
          <mxGeometry x="-300" y="710" width="60" height="30" as="geometry" />
        </mxCell>
        <mxCell id="M1WmX0pcGUZYGoduAmo--40" value="" style="endArrow=none;dashed=1;html=1;dashPattern=1 3;strokeWidth=2;rounded=0;strokeColor=default;" edge="1" parent="1">
          <mxGeometry width="50" height="50" relative="1" as="geometry">
            <mxPoint x="-560" y="800" as="sourcePoint" />
            <mxPoint x="130" as="targetPoint" />
          </mxGeometry>
        </mxCell>
        <mxCell id="M1WmX0pcGUZYGoduAmo--41" value="" style="endArrow=none;dashed=1;html=1;dashPattern=1 3;strokeWidth=2;rounded=0;strokeColor=default;" edge="1" parent="1">
          <mxGeometry width="50" height="50" relative="1" as="geometry">
            <mxPoint x="130" as="sourcePoint" />
            <mxPoint x="800" as="targetPoint" />
          </mxGeometry>
        </mxCell>
        <mxCell id="M1WmX0pcGUZYGoduAmo--42" value="" style="endArrow=none;dashed=1;html=1;dashPattern=1 3;strokeWidth=2;rounded=0;strokeColor=default;" edge="1" parent="1">
          <mxGeometry width="50" height="50" relative="1" as="geometry">
            <mxPoint x="800" y="880" as="sourcePoint" />
            <mxPoint x="800" as="targetPoint" />
          </mxGeometry>
        </mxCell>
        <mxCell id="M1WmX0pcGUZYGoduAmo--43" value="" style="endArrow=none;dashed=1;html=1;dashPattern=1 3;strokeWidth=2;rounded=0;strokeColor=default;" edge="1" parent="1">
          <mxGeometry width="50" height="50" relative="1" as="geometry">
            <mxPoint x="40" y="1360" as="sourcePoint" />
            <mxPoint x="800" y="880" as="targetPoint" />
          </mxGeometry>
        </mxCell>
        <mxCell id="M1WmX0pcGUZYGoduAmo--44" value="" style="endArrow=none;dashed=1;html=1;dashPattern=1 3;strokeWidth=2;rounded=0;strokeColor=default;" edge="1" parent="1">
          <mxGeometry width="50" height="50" relative="1" as="geometry">
            <mxPoint x="40" y="1360" as="sourcePoint" />
            <mxPoint x="-560" y="800" as="targetPoint" />
          </mxGeometry>
        </mxCell>
        <mxCell id="M1WmX0pcGUZYGoduAmo--46" value="&lt;h1 style=&quot;margin-top: 0px;&quot;&gt;Fig. A&lt;/h1&gt;" style="text;html=1;whiteSpace=wrap;overflow=hidden;rounded=0;strokeColor=none;" vertex="1" parent="1">
          <mxGeometry x="94" y="100" width="180" height="120" as="geometry" />
        </mxCell>
        <mxCell id="M1WmX0pcGUZYGoduAmo--47" value="&lt;font style=&quot;font-size: 11px;&quot;&gt;Accelerating Double Slit Arm A&lt;/font&gt;" style="text;html=1;align=center;verticalAlign=middle;whiteSpace=wrap;rounded=0;strokeColor=none;fontSize=11;" vertex="1" parent="1">
          <mxGeometry x="-393.13" y="1569" width="106.25" height="30" as="geometry" />
        </mxCell>
        <mxCell id="M1WmX0pcGUZYGoduAmo--49" value="&lt;font style=&quot;font-size: 11px;&quot; face=&quot;Helvetica&quot;&gt;Speed Up&lt;/font&gt;" style="text;html=1;align=center;verticalAlign=middle;whiteSpace=wrap;rounded=0;strokeColor=none;fontSize=11;" vertex="1" parent="1">
          <mxGeometry x="-9" y="1450" width="60" height="30" as="geometry" />
        </mxCell>
        <mxCell id="M1WmX0pcGUZYGoduAmo--50" value="&lt;font style=&quot;font-size: 11px;&quot;&gt;Slown Down&lt;/font&gt;" style="text;html=1;align=center;verticalAlign=middle;whiteSpace=wrap;rounded=0;strokeColor=none;fontSize=11;" vertex="1" parent="1">
          <mxGeometry x="-210" y="1450" width="70" height="30" as="geometry" />
        </mxCell>
        <mxCell id="M1WmX0pcGUZYGoduAmo--54" value="" style="curved=1;endArrow=classic;html=1;rounded=0;strokeColor=default;" edge="1" parent="1" source="M1WmX0pcGUZYGoduAmo--170">
          <mxGeometry width="50" height="50" relative="1" as="geometry">
            <mxPoint x="80" y="1560" as="sourcePoint" />
            <mxPoint x="-100" y="1530" as="targetPoint" />
            <Array as="points">
              <mxPoint x="-70" y="1530" />
            </Array>
          </mxGeometry>
        </mxCell>
        <mxCell id="M1WmX0pcGUZYGoduAmo--59" value="" style="curved=1;endArrow=classic;html=1;rounded=0;strokeColor=default;" edge="1" parent="1">
          <mxGeometry width="50" height="50" relative="1" as="geometry">
            <mxPoint x="-101.5" y="1530" as="sourcePoint" />
            <mxPoint x="-270" y="1560" as="targetPoint" />
            <Array as="points">
              <mxPoint x="-168" y="1550" />
              <mxPoint x="-230" y="1550" />
            </Array>
          </mxGeometry>
        </mxCell>
        <mxCell id="M1WmX0pcGUZYGoduAmo--61" value="&lt;font style=&quot;font-size: 11px;&quot;&gt;Velocity&lt;/font&gt;" style="text;html=1;align=center;verticalAlign=middle;whiteSpace=wrap;rounded=0;strokeColor=none;fontSize=11;" vertex="1" parent="1">
          <mxGeometry x="-9" y="1522" width="60" height="30" as="geometry" />
        </mxCell>
        <mxCell id="M1WmX0pcGUZYGoduAmo--62" value="" style="shape=flexArrow;endArrow=classic;html=1;rounded=0;strokeColor=default;" edge="1" parent="1">
          <mxGeometry width="50" height="50" relative="1" as="geometry">
            <mxPoint x="-120" y="1490" as="sourcePoint" />
            <mxPoint x="-267" y="1490" as="targetPoint" />
          </mxGeometry>
        </mxCell>
        <mxCell id="M1WmX0pcGUZYGoduAmo--63" value="&lt;font style=&quot;font-size: 11px;&quot;&gt;Emitter&lt;/font&gt;" style="text;html=1;align=center;verticalAlign=middle;whiteSpace=wrap;rounded=0;strokeColor=none;fontSize=11;" vertex="1" parent="1">
          <mxGeometry x="94" y="1569" width="60" height="30" as="geometry" />
        </mxCell>
        <mxCell id="M1WmX0pcGUZYGoduAmo--64" value="" style="shape=flexArrow;endArrow=classic;html=1;rounded=0;strokeColor=default;" edge="1" parent="1">
          <mxGeometry width="50" height="50" relative="1" as="geometry">
            <mxPoint x="94" y="1490" as="sourcePoint" />
            <mxPoint x="-70" y="1489" as="targetPoint" />
          </mxGeometry>
        </mxCell>
        <mxCell id="10ed09ecd0ef054a-58" value="" style="verticalLabelPosition=bottom;dashed=0;shadow=0;html=1;align=center;verticalAlign=top;strokeWidth=1;shape=mxgraph.cabinets.motor_cb_1_32a;rounded=0;comic=0;labelBackgroundColor=none;fontFamily=Verdana;strokeColor=default;" parent="1" vertex="1">
          <mxGeometry x="-110" y="1467" width="27" height="43" as="geometry" />
        </mxCell>
        <mxCell id="M1WmX0pcGUZYGoduAmo--65" value="" style="endArrow=classic;startArrow=classic;html=1;rounded=0;strokeColor=default;" edge="1" parent="1">
          <mxGeometry width="50" height="50" relative="1" as="geometry">
            <mxPoint x="-270" y="1410" as="sourcePoint" />
            <mxPoint x="93.5" y="1410" as="targetPoint" />
          </mxGeometry>
        </mxCell>
        <mxCell id="M1WmX0pcGUZYGoduAmo--66" value="1000m" style="text;html=1;align=center;verticalAlign=middle;whiteSpace=wrap;rounded=0;strokeColor=none;fontSize=11;" vertex="1" parent="1">
          <mxGeometry x="-126.5" y="1380" width="60" height="30" as="geometry" />
        </mxCell>
        <mxCell id="M1WmX0pcGUZYGoduAmo--67" value="&lt;font style=&quot;font-size: 11px;&quot;&gt;Double Slit Setup&lt;/font&gt;" style="text;html=1;align=center;verticalAlign=middle;whiteSpace=wrap;rounded=0;strokeColor=none;fontSize=11;" vertex="1" parent="1">
          <mxGeometry x="-126.5" y="1430" width="60" height="30" as="geometry" />
        </mxCell>
        <mxCell id="M1WmX0pcGUZYGoduAmo--134" value="&lt;font style=&quot;font-size: 7px;&quot;&gt;(Same Configuration for Arm B)&lt;/font&gt;" style="text;html=1;align=center;verticalAlign=middle;whiteSpace=wrap;rounded=0;strokeColor=none;fontSize=7;" vertex="1" parent="1">
          <mxGeometry x="-400" y="1591" width="120" height="30" as="geometry" />
        </mxCell>
        <mxCell id="M1WmX0pcGUZYGoduAmo--135" value="" style="whiteSpace=wrap;html=1;rounded=0;shadow=0;comic=0;labelBackgroundColor=none;strokeWidth=1;fontFamily=Verdana;fontSize=12;align=center;rotation=0;strokeColor=default;" vertex="1" parent="1">
          <mxGeometry x="-267" y="2022.0000000000002" width="361" height="12" as="geometry" />
        </mxCell>
        <mxCell id="M1WmX0pcGUZYGoduAmo--136" value="&lt;font style=&quot;font-size: 11px;&quot;&gt;Constant Velocity Double Slit Arm A&lt;/font&gt;" style="text;html=1;align=center;verticalAlign=middle;whiteSpace=wrap;rounded=0;strokeColor=none;fontSize=11;" vertex="1" parent="1">
          <mxGeometry x="-388.12" y="2013.0000000000002" width="106.25" height="30" as="geometry" />
        </mxCell>
        <mxCell id="M1WmX0pcGUZYGoduAmo--139" value="" style="curved=1;endArrow=classic;html=1;rounded=0;strokeColor=default;" edge="1" parent="1">
          <mxGeometry width="50" height="50" relative="1" as="geometry">
            <mxPoint x="80" y="2003.5800000000002" as="sourcePoint" />
            <mxPoint x="-100" y="1973.5800000000002" as="targetPoint" />
            <Array as="points">
              <mxPoint x="70" y="1974" />
              <mxPoint x="-70" y="1973.5800000000002" />
            </Array>
          </mxGeometry>
        </mxCell>
        <mxCell id="M1WmX0pcGUZYGoduAmo--140" value="" style="curved=1;endArrow=classic;html=1;rounded=0;strokeColor=default;" edge="1" parent="1">
          <mxGeometry width="50" height="50" relative="1" as="geometry">
            <mxPoint x="-101.5" y="1973.5800000000002" as="sourcePoint" />
            <mxPoint x="-270" y="2003.5800000000002" as="targetPoint" />
            <Array as="points">
              <mxPoint x="-230" y="1970" />
              <mxPoint x="-250" y="1980" />
            </Array>
          </mxGeometry>
        </mxCell>
        <mxCell id="M1WmX0pcGUZYGoduAmo--141" value="Velocity" style="text;html=1;align=center;verticalAlign=middle;whiteSpace=wrap;rounded=0;strokeColor=none;fontSize=11;" vertex="1" parent="1">
          <mxGeometry x="-20" y="1970.0000000000002" width="60" height="30" as="geometry" />
        </mxCell>
        <mxCell id="M1WmX0pcGUZYGoduAmo--143" value="Emitter" style="text;html=1;align=center;verticalAlign=middle;whiteSpace=wrap;rounded=0;strokeColor=none;fontSize=11;" vertex="1" parent="1">
          <mxGeometry x="93.5" y="2013.0000000000002" width="60" height="30" as="geometry" />
        </mxCell>
        <mxCell id="M1WmX0pcGUZYGoduAmo--144" value="" style="shape=flexArrow;endArrow=classic;html=1;rounded=0;strokeColor=default;" edge="1" parent="1">
          <mxGeometry width="50" height="50" relative="1" as="geometry">
            <mxPoint x="94" y="1933.5800000000002" as="sourcePoint" />
            <mxPoint x="-260" y="1933.92" as="targetPoint" />
          </mxGeometry>
        </mxCell>
        <mxCell id="M1WmX0pcGUZYGoduAmo--146" value="" style="endArrow=classic;startArrow=classic;html=1;rounded=0;strokeColor=default;" edge="1" parent="1">
          <mxGeometry width="50" height="50" relative="1" as="geometry">
            <mxPoint x="-267" y="1860.0000000000002" as="sourcePoint" />
            <mxPoint x="80" y="1860.0000000000002" as="targetPoint" />
          </mxGeometry>
        </mxCell>
        <mxCell id="M1WmX0pcGUZYGoduAmo--147" value="1000m" style="text;html=1;align=center;verticalAlign=middle;whiteSpace=wrap;rounded=0;strokeColor=none;fontSize=11;" vertex="1" parent="1">
          <mxGeometry x="-126.5" y="1835.0000000000002" width="60" height="30" as="geometry" />
        </mxCell>
        <mxCell id="M1WmX0pcGUZYGoduAmo--148" value="&lt;font style=&quot;font-size: 11px;&quot;&gt;Double Slit Setup&lt;/font&gt;" style="text;html=1;align=center;verticalAlign=middle;whiteSpace=wrap;rounded=0;strokeColor=none;fontSize=11;" vertex="1" parent="1">
          <mxGeometry x="-126.5" y="1873.5800000000002" width="60" height="30" as="geometry" />
        </mxCell>
        <mxCell id="M1WmX0pcGUZYGoduAmo--149" value="&lt;font style=&quot;font-size: 7px;&quot;&gt;(Same Configuration for Arm B)&lt;/font&gt;" style="text;html=1;align=center;verticalAlign=middle;whiteSpace=wrap;rounded=0;strokeColor=none;fontSize=7;" vertex="1" parent="1">
          <mxGeometry x="-390" y="2043" width="110" height="30" as="geometry" />
        </mxCell>
        <mxCell id="M1WmX0pcGUZYGoduAmo--150" value="" style="shape=flexArrow;endArrow=classic;html=1;rounded=0;strokeColor=default;" edge="1" parent="1">
          <mxGeometry width="50" height="50" relative="1" as="geometry">
            <mxPoint x="-267" y="1668.5" as="sourcePoint" />
            <mxPoint x="-120" y="1669" as="targetPoint" />
          </mxGeometry>
        </mxCell>
        <mxCell id="M1WmX0pcGUZYGoduAmo--151" value="Speed Up" style="text;html=1;align=center;verticalAlign=middle;whiteSpace=wrap;rounded=0;strokeColor=none;fontSize=11;" vertex="1" parent="1">
          <mxGeometry x="-229" y="1678.5" width="60" height="30" as="geometry" />
        </mxCell>
        <mxCell id="M1WmX0pcGUZYGoduAmo--152" value="" style="shape=flexArrow;endArrow=classic;html=1;rounded=0;strokeColor=default;" edge="1" parent="1">
          <mxGeometry width="50" height="50" relative="1" as="geometry">
            <mxPoint x="-70" y="1669" as="sourcePoint" />
            <mxPoint x="81" y="1668.5" as="targetPoint" />
          </mxGeometry>
        </mxCell>
        <mxCell id="M1WmX0pcGUZYGoduAmo--153" value="" style="verticalLabelPosition=bottom;dashed=0;shadow=0;html=1;align=center;verticalAlign=top;strokeWidth=1;shape=mxgraph.cabinets.motor_cb_1_32a;rounded=0;comic=0;labelBackgroundColor=none;fontFamily=Verdana;strokeColor=default;" vertex="1" parent="1">
          <mxGeometry x="-110" y="1645.5" width="27" height="43" as="geometry" />
        </mxCell>
        <mxCell id="M1WmX0pcGUZYGoduAmo--154" value="Double Slit Setup" style="text;html=1;align=center;verticalAlign=middle;whiteSpace=wrap;rounded=0;fontSize=11;strokeColor=none;" vertex="1" parent="1">
          <mxGeometry x="-126.5" y="1692" width="60" height="30" as="geometry" />
        </mxCell>
        <mxCell id="M1WmX0pcGUZYGoduAmo--157" value="" style="curved=1;endArrow=classic;html=1;rounded=0;strokeColor=default;" edge="1" parent="1">
          <mxGeometry width="50" height="50" relative="1" as="geometry">
            <mxPoint x="-97" y="1610" as="sourcePoint" />
            <mxPoint x="83" y="1640" as="targetPoint" />
            <Array as="points">
              <mxPoint x="-67" y="1610" />
              <mxPoint x="-7" y="1630" />
            </Array>
          </mxGeometry>
        </mxCell>
        <mxCell id="M1WmX0pcGUZYGoduAmo--158" value="" style="curved=1;endArrow=classic;html=1;rounded=0;strokeColor=default;" edge="1" parent="1">
          <mxGeometry width="50" height="50" relative="1" as="geometry">
            <mxPoint x="-267" y="1640" as="sourcePoint" />
            <mxPoint x="-98.5" y="1610" as="targetPoint" />
            <Array as="points">
              <mxPoint x="-227" y="1630" />
              <mxPoint x="-165" y="1630" />
            </Array>
          </mxGeometry>
        </mxCell>
        <mxCell id="M1WmX0pcGUZYGoduAmo--159" value="&lt;font style=&quot;font-size: 11px;&quot;&gt;Velocity&lt;/font&gt;" style="text;html=1;align=center;verticalAlign=middle;whiteSpace=wrap;rounded=0;strokeColor=none;fontSize=11;" vertex="1" parent="1">
          <mxGeometry x="-229" y="1599" width="60" height="30" as="geometry" />
        </mxCell>
        <mxCell id="M1WmX0pcGUZYGoduAmo--160" value="&lt;font style=&quot;font-size: 11px;&quot;&gt;Slown Down&lt;/font&gt;" style="text;html=1;align=center;verticalAlign=middle;whiteSpace=wrap;rounded=0;strokeColor=none;fontSize=11;" vertex="1" parent="1">
          <mxGeometry x="-30" y="1682" width="70" height="30" as="geometry" />
        </mxCell>
        <mxCell id="M1WmX0pcGUZYGoduAmo--162" value="" style="verticalLabelPosition=bottom;dashed=0;shadow=0;html=1;align=center;verticalAlign=top;strokeWidth=1;shape=mxgraph.cabinets.motor_cb_1_32a;rounded=0;comic=0;labelBackgroundColor=none;fontFamily=Verdana;strokeColor=default;" vertex="1" parent="1">
          <mxGeometry x="-110" y="1910.58" width="27" height="43" as="geometry" />
        </mxCell>
        <mxCell id="M1WmX0pcGUZYGoduAmo--163" value="" style="curved=1;endArrow=classic;html=1;rounded=0;strokeColor=default;" edge="1" parent="1">
          <mxGeometry width="50" height="50" relative="1" as="geometry">
            <mxPoint x="-97" y="2048.58" as="sourcePoint" />
            <mxPoint x="83" y="2078.58" as="targetPoint" />
            <Array as="points">
              <mxPoint x="-67" y="2048.58" />
              <mxPoint x="73" y="2049" />
            </Array>
          </mxGeometry>
        </mxCell>
        <mxCell id="M1WmX0pcGUZYGoduAmo--164" value="" style="curved=1;endArrow=classic;html=1;rounded=0;strokeColor=default;" edge="1" parent="1">
          <mxGeometry width="50" height="50" relative="1" as="geometry">
            <mxPoint x="-267" y="2078.58" as="sourcePoint" />
            <mxPoint x="-98.5" y="2048.58" as="targetPoint" />
            <Array as="points">
              <mxPoint x="-247" y="2055" />
              <mxPoint x="-227" y="2045" />
            </Array>
          </mxGeometry>
        </mxCell>
        <mxCell id="M1WmX0pcGUZYGoduAmo--165" value="Velocity" style="text;html=1;align=center;verticalAlign=middle;whiteSpace=wrap;rounded=0;direction=north;strokeColor=none;fontSize=11;" vertex="1" parent="1">
          <mxGeometry x="-240" y="2040" width="30" height="60" as="geometry" />
        </mxCell>
        <mxCell id="M1WmX0pcGUZYGoduAmo--166" value="" style="shape=flexArrow;endArrow=classic;html=1;rounded=0;strokeColor=default;" edge="1" parent="1">
          <mxGeometry width="50" height="50" relative="1" as="geometry">
            <mxPoint x="-264" y="2130.34" as="sourcePoint" />
            <mxPoint x="90" y="2130" as="targetPoint" />
          </mxGeometry>
        </mxCell>
        <mxCell id="M1WmX0pcGUZYGoduAmo--167" value="&lt;font style=&quot;font-size: 11px;&quot;&gt;Double Slit Setup&lt;/font&gt;" style="text;html=1;align=center;verticalAlign=middle;whiteSpace=wrap;rounded=0;strokeColor=none;fontSize=11;" vertex="1" parent="1">
          <mxGeometry x="-130.5" y="2070" width="60" height="30" as="geometry" />
        </mxCell>
        <mxCell id="M1WmX0pcGUZYGoduAmo--168" value="" style="verticalLabelPosition=bottom;dashed=0;shadow=0;html=1;align=center;verticalAlign=top;strokeWidth=1;shape=mxgraph.cabinets.motor_cb_1_32a;rounded=0;comic=0;labelBackgroundColor=none;fontFamily=Verdana;strokeColor=default;" vertex="1" parent="1">
          <mxGeometry x="-114" y="2107" width="27" height="43" as="geometry" />
        </mxCell>
        <mxCell id="M1WmX0pcGUZYGoduAmo--169" value="" style="ellipse;whiteSpace=wrap;html=1;rounded=0;shadow=0;comic=0;labelBackgroundColor=none;strokeWidth=1;fontFamily=Verdana;fontSize=12;align=center;dashed=1;strokeColor=default;" vertex="1" parent="1">
          <mxGeometry x="-276" y="1636" width="12" height="12" as="geometry" />
        </mxCell>
        <mxCell id="M1WmX0pcGUZYGoduAmo--170" value="" style="ellipse;whiteSpace=wrap;html=1;rounded=0;shadow=0;comic=0;labelBackgroundColor=none;strokeWidth=1;fontFamily=Verdana;fontSize=12;align=center;dashed=1;strokeColor=default;" vertex="1" parent="1">
          <mxGeometry x="75" y="1557" width="12" height="12" as="geometry" />
        </mxCell>
        <mxCell id="M1WmX0pcGUZYGoduAmo--177" value="" style="ellipse;whiteSpace=wrap;html=1;rounded=0;shadow=0;comic=0;labelBackgroundColor=none;strokeWidth=1;fontFamily=Verdana;fontSize=12;align=center;dashed=1;strokeColor=default;" vertex="1" parent="1">
          <mxGeometry x="75" y="2000" width="12" height="12" as="geometry" />
        </mxCell>
        <mxCell id="M1WmX0pcGUZYGoduAmo--179" value="" style="ellipse;whiteSpace=wrap;html=1;rounded=0;shadow=0;comic=0;labelBackgroundColor=none;strokeWidth=1;fontFamily=Verdana;fontSize=12;align=center;dashed=1;strokeColor=default;" vertex="1" parent="1">
          <mxGeometry x="-276" y="2078" width="12" height="12" as="geometry" />
        </mxCell>
        <mxCell id="M1WmX0pcGUZYGoduAmo--181" value="" style="endArrow=none;dashed=1;html=1;dashPattern=1 3;strokeWidth=2;rounded=0;strokeColor=default;" edge="1" parent="1">
          <mxGeometry width="50" height="50" relative="1" as="geometry">
            <mxPoint x="200" y="1370" as="sourcePoint" />
            <mxPoint x="200" y="1760" as="targetPoint" />
          </mxGeometry>
        </mxCell>
        <mxCell id="M1WmX0pcGUZYGoduAmo--182" value="" style="endArrow=none;dashed=1;html=1;dashPattern=1 3;strokeWidth=2;rounded=0;strokeColor=default;" edge="1" parent="1">
          <mxGeometry width="50" height="50" relative="1" as="geometry">
            <mxPoint x="-480" y="1370" as="sourcePoint" />
            <mxPoint x="200" y="1370" as="targetPoint" />
          </mxGeometry>
        </mxCell>
        <mxCell id="M1WmX0pcGUZYGoduAmo--183" value="" style="endArrow=none;dashed=1;html=1;dashPattern=1 3;strokeWidth=2;rounded=0;strokeColor=default;" edge="1" parent="1">
          <mxGeometry width="50" height="50" relative="1" as="geometry">
            <mxPoint x="-480" y="1760" as="sourcePoint" />
            <mxPoint x="200" y="1760" as="targetPoint" />
          </mxGeometry>
        </mxCell>
        <mxCell id="M1WmX0pcGUZYGoduAmo--184" value="" style="endArrow=none;dashed=1;html=1;dashPattern=1 3;strokeWidth=2;rounded=0;strokeColor=default;" edge="1" parent="1">
          <mxGeometry width="50" height="50" relative="1" as="geometry">
            <mxPoint x="-480" y="1760" as="sourcePoint" />
            <mxPoint x="-480" y="1370" as="targetPoint" />
          </mxGeometry>
        </mxCell>
        <mxCell id="M1WmX0pcGUZYGoduAmo--185" value="&lt;h1 style=&quot;margin-top: 0px;&quot;&gt;Fig. B&lt;/h1&gt;" style="text;html=1;whiteSpace=wrap;overflow=hidden;rounded=0;strokeColor=none;" vertex="1" parent="1">
          <mxGeometry x="-447.5" y="1390" width="180" height="120" as="geometry" />
        </mxCell>
        <mxCell id="M1WmX0pcGUZYGoduAmo--186" value="" style="endArrow=none;dashed=1;html=1;dashPattern=1 3;strokeWidth=2;rounded=0;strokeColor=default;" edge="1" parent="1">
          <mxGeometry width="50" height="50" relative="1" as="geometry">
            <mxPoint x="199.75" y="1804.88" as="sourcePoint" />
            <mxPoint x="199.75" y="2194.88" as="targetPoint" />
          </mxGeometry>
        </mxCell>
        <mxCell id="M1WmX0pcGUZYGoduAmo--187" value="" style="endArrow=none;dashed=1;html=1;dashPattern=1 3;strokeWidth=2;rounded=0;strokeColor=default;" edge="1" parent="1">
          <mxGeometry width="50" height="50" relative="1" as="geometry">
            <mxPoint x="-480.25" y="1804.88" as="sourcePoint" />
            <mxPoint x="199.75" y="1804.88" as="targetPoint" />
          </mxGeometry>
        </mxCell>
        <mxCell id="M1WmX0pcGUZYGoduAmo--188" value="" style="endArrow=none;dashed=1;html=1;dashPattern=1 3;strokeWidth=2;rounded=0;strokeColor=default;" edge="1" parent="1">
          <mxGeometry width="50" height="50" relative="1" as="geometry">
            <mxPoint x="-480.25" y="2194.88" as="sourcePoint" />
            <mxPoint x="199.75" y="2194.88" as="targetPoint" />
          </mxGeometry>
        </mxCell>
        <mxCell id="M1WmX0pcGUZYGoduAmo--189" value="" style="endArrow=none;dashed=1;html=1;dashPattern=1 3;strokeWidth=2;rounded=0;strokeColor=default;" edge="1" parent="1">
          <mxGeometry width="50" height="50" relative="1" as="geometry">
            <mxPoint x="-480.25" y="2194.88" as="sourcePoint" />
            <mxPoint x="-480.25" y="1804.88" as="targetPoint" />
          </mxGeometry>
        </mxCell>
        <mxCell id="M1WmX0pcGUZYGoduAmo--190" value="&lt;h1 style=&quot;margin-top: 0px;&quot;&gt;Fig. C&lt;/h1&gt;" style="text;html=1;whiteSpace=wrap;overflow=hidden;rounded=0;strokeColor=none;" vertex="1" parent="1">
          <mxGeometry x="-444" y="1833.58" width="180" height="120" as="geometry" />
        </mxCell>
        <mxCell id="M1WmX0pcGUZYGoduAmo--191" value="&lt;font style=&quot;font-size: 11px;&quot;&gt;LIGO&lt;/font&gt;" style="text;html=1;align=center;verticalAlign=middle;whiteSpace=wrap;rounded=0;strokeColor=none;fontSize=11;" vertex="1" parent="1">
          <mxGeometry x="223" y="365" width="60" height="30" as="geometry" />
        </mxCell>
        <mxCell id="M1WmX0pcGUZYGoduAmo--192" value="" style="endArrow=classic;html=1;rounded=0;strokeColor=default;" edge="1" parent="1">
          <mxGeometry width="50" height="50" relative="1" as="geometry">
            <mxPoint x="500" y="470" as="sourcePoint" />
            <mxPoint x="440" y="410" as="targetPoint" />
          </mxGeometry>
        </mxCell>
        <mxCell id="M1WmX0pcGUZYGoduAmo--193" value="&lt;font style=&quot;font-size: 11px;&quot;&gt;Beam Splitter&lt;/font&gt;" style="text;html=1;align=center;verticalAlign=middle;whiteSpace=wrap;rounded=0;strokeColor=none;fontSize=11;" vertex="1" parent="1">
          <mxGeometry x="488" y="470" width="60" height="30" as="geometry" />
        </mxCell>
        <mxCell id="M1WmX0pcGUZYGoduAmo--194" value="&lt;font style=&quot;font-size: 11px;&quot;&gt;Laser&lt;/font&gt;" style="text;html=1;align=center;verticalAlign=middle;whiteSpace=wrap;rounded=0;strokeColor=none;fontSize=11;" vertex="1" parent="1">
          <mxGeometry x="747" y="365" width="60" height="30" as="geometry" />
        </mxCell>
        <mxCell id="M1WmX0pcGUZYGoduAmo--195" value="&lt;font style=&quot;font-size: 11px;&quot;&gt;Test Mass&lt;/font&gt;" style="text;html=1;align=center;verticalAlign=middle;whiteSpace=wrap;rounded=0;strokeColor=none;fontSize=11;" vertex="1" parent="1">
          <mxGeometry x="386.25" y="690" width="60" height="30" as="geometry" />
        </mxCell>
        <mxCell id="M1WmX0pcGUZYGoduAmo--196" value="&lt;font style=&quot;font-size: 11px;&quot;&gt;Test Mass&lt;/font&gt;" style="text;html=1;align=center;verticalAlign=middle;whiteSpace=wrap;rounded=0;strokeColor=none;fontSize=11;" vertex="1" parent="1">
          <mxGeometry x="-9.5" y="365" width="60" height="30" as="geometry" />
        </mxCell>
        <mxCell id="M1WmX0pcGUZYGoduAmo--197" value="&lt;font style=&quot;font-size: 11px;&quot;&gt;Photo Detector&lt;/font&gt;" style="text;html=1;align=center;verticalAlign=middle;whiteSpace=wrap;rounded=0;strokeColor=none;" vertex="1" parent="1">
          <mxGeometry x="368" y="10" width="96.5" height="30" as="geometry" />
        </mxCell>
      </root>
    </mxGraphModel>
  </diagram>
</mxfile>
